<?xml version="1.0" encoding="UTF-8"?>
<svg xmlns="http://www.w3.org/2000/svg" xmlns:xlink="http://www.w3.org/1999/xlink" viewBox="0 0 369.2 351.13">
  <defs>
    <style>
      .cls-1 {
        fill: url(#linear-gradient-2);
      }

      .cls-2 {
        fill: url(#radial-gradient-7);
      }

      .cls-3 {
        fill: url(#radial-gradient-10);
      }

      .cls-4 {
        fill: #fff;
      }

      .cls-5 {
        fill: url(#radial-gradient-16);
      }

      .cls-6 {
        fill: url(#radial-gradient-8);
      }

      .cls-7 {
        fill: url(#radial-gradient-5);
      }

      .cls-8 {
        fill: url(#radial-gradient-4);
      }

      .cls-9 {
        isolation: isolate;
      }

      .cls-10 {
        fill: url(#radial-gradient-6);
      }

      .cls-11 {
        fill: url(#radial-gradient-19);
      }

      .cls-12 {
        fill: url(#radial-gradient-12);
      }

      .cls-13 {
        fill: url(#radial-gradient);
      }

      .cls-14 {
        fill: url(#radial-gradient-13);
      }

      .cls-15 {
        opacity: .3;
      }

      .cls-15, .cls-16 {
        mix-blend-mode: multiply;
      }

      .cls-17 {
        fill: url(#linear-gradient-5);
      }

      .cls-18 {
        fill: url(#radial-gradient-15);
      }

      .cls-19 {
        fill: url(#radial-gradient-3);
      }

      .cls-20 {
        fill: url(#radial-gradient-2);
        mix-blend-mode: screen;
      }

      .cls-21 {
        fill: url(#radial-gradient-17);
      }

      .cls-22 {
        fill: url(#radial-gradient-14);
      }

      .cls-23 {
        fill: url(#linear-gradient-3);
      }

      .cls-24 {
        fill: url(#linear-gradient);
      }

      .cls-25 {
        fill: url(#linear-gradient-4);
      }

      .cls-26 {
        fill: url(#radial-gradient-11);
      }

      .cls-27 {
        fill: url(#radial-gradient-18);
      }

      .cls-28 {
        fill: url(#radial-gradient-9);
      }
    </style>
    <radialGradient id="radial-gradient" cx="184.6" cy="189.91" fx="184.6" fy="189.91" r="136.83" gradientUnits="userSpaceOnUse">
      <stop offset="0" stop-color="#fff"/>
      <stop offset="1" stop-color="#4c75ba"/>
    </radialGradient>
    <radialGradient id="radial-gradient-2" cx="184.19" fx="184.19" xlink:href="#radial-gradient"/>
    <radialGradient id="radial-gradient-3" cx="59.8" cy="239.06" fx="59.8" fy="239.06" r="29.15" gradientUnits="userSpaceOnUse">
      <stop offset="0" stop-color="#8f8f8f"/>
      <stop offset="1" stop-color="#031126"/>
    </radialGradient>
    <radialGradient id="radial-gradient-4" cx="105.08" cy="87.78" fx="105.08" fy="87.78" r="28.5" xlink:href="#radial-gradient-3"/>
    <radialGradient id="radial-gradient-5" cx="184.6" cy="324.85" fx="184.6" fy="324.85" r="29.58" xlink:href="#radial-gradient-3"/>
    <radialGradient id="radial-gradient-6" cx="264.12" cy="87.78" fx="264.12" fy="87.78" r="28.5" xlink:href="#radial-gradient-3"/>
    <radialGradient id="radial-gradient-7" cx="309.4" fx="309.4" xlink:href="#radial-gradient-3"/>
    <linearGradient id="linear-gradient" x1="58.66" y1="152.76" x2="-1.97" y2="134.2" gradientUnits="userSpaceOnUse">
      <stop offset="0" stop-color="#4c75ba"/>
      <stop offset="1" stop-color="#031126"/>
    </linearGradient>
    <linearGradient id="linear-gradient-2" x1="100.96" y1="308.95" x2="71.56" y2="351.89" xlink:href="#linear-gradient"/>
    <linearGradient id="linear-gradient-3" x1="184.6" y1="59.07" x2="184.6" y2="0" xlink:href="#linear-gradient"/>
    <linearGradient id="linear-gradient-4" x1="274.37" y1="316.13" x2="307.71" y2="356.09" gradientUnits="userSpaceOnUse">
      <stop offset="0" stop-color="#4c75ba"/>
      <stop offset=".89" stop-color="#031126"/>
    </linearGradient>
    <linearGradient id="linear-gradient-5" x1="310.78" y1="152.92" x2="364.82" y2="133.38" xlink:href="#linear-gradient"/>
    <radialGradient id="radial-gradient-8" cx="127.23" cy="199.16" fx="127.23" fy="199.16" r="30.22" xlink:href="#radial-gradient"/>
    <radialGradient id="radial-gradient-9" cx="155.71" cy="199.16" fx="155.71" fy="199.16" r="28.33" xlink:href="#radial-gradient"/>
    <radialGradient id="radial-gradient-10" cx="192.3" cy="199.16" fx="192.3" fy="199.16" r="31.48" xlink:href="#radial-gradient"/>
    <radialGradient id="radial-gradient-11" cx="239.3" cy="199.05" fx="239.3" fy="199.05" r="30.93" xlink:href="#radial-gradient"/>
    <radialGradient id="radial-gradient-12" cx="127.38" cy="199.16" fx="127.38" fy="199.16" r="30.22" xlink:href="#radial-gradient"/>
    <radialGradient id="radial-gradient-13" cx="155.86" cy="199.16" fx="155.86" fy="199.16" r="28.33" xlink:href="#radial-gradient"/>
    <radialGradient id="radial-gradient-14" cx="192.45" cy="199.16" fx="192.45" fy="199.16" r="31.48" xlink:href="#radial-gradient"/>
    <radialGradient id="radial-gradient-15" cx="239.45" cy="199.05" fx="239.45" fy="199.05" r="30.93" xlink:href="#radial-gradient"/>
    <radialGradient id="radial-gradient-16" cx="130.03" cy="199.16" fx="130.03" fy="199.16" r="30.22" xlink:href="#radial-gradient"/>
    <radialGradient id="radial-gradient-17" cx="158.51" cy="199.16" fx="158.51" fy="199.16" r="28.33" xlink:href="#radial-gradient"/>
    <radialGradient id="radial-gradient-18" cx="195.1" cy="199.16" fx="195.1" fy="199.16" r="31.48" xlink:href="#radial-gradient"/>
    <radialGradient id="radial-gradient-19" cx="242.1" cy="199.05" fx="242.1" fy="199.05" r="30.93" xlink:href="#radial-gradient"/>
  </defs>
  <g class="cls-9">
    <g id="Layer_2" data-name="Layer 2">
      <g id="Layer_1-2" data-name="Layer 1">
        <g>
          <path class="cls-13" d="m276.9,224.08l11.71,68.24c-11.84,12.93-26.06,23.64-41.96,31.44l-62.05-32.62-62.05,32.62c-15.91-7.8-30.12-18.51-41.96-31.44l11.7-68.24-47.43-46.23c2.6-19.14,9.05-37.05,18.54-52.95l64.15-9.32,27.9-56.51c9.41-1.98,19.16-3.02,29.15-3.02s19.74,1.04,29.15,3.02l27.9,56.51,64.14,9.32c9.48,15.89,15.94,33.81,18.54,52.95l-47.43,46.23Z"/>
          <path class="cls-20" d="m276.49,224.08l11.71,68.24c-11.84,12.93-26.06,23.64-41.96,31.44l-62.05-32.62-62.05,32.62c-15.91-7.8-30.12-18.51-41.96-31.44l11.7-68.24-47.43-46.23c2.6-19.14,9.05-37.05,18.54-52.95l64.15-9.32,27.9-56.51c9.41-1.98,19.16-3.02,29.15-3.02s19.74,1.04,29.15,3.02l27.9,56.51,64.14,9.32c9.48,15.89,15.94,33.81,18.54,52.95l-47.43,46.23Z"/>
          <path class="cls-19" d="m75.97,232.67l-7.6,44.32c-14.93-21.67-23.96-47.73-24.74-75.84l32.34,31.53Z"/>
          <path class="cls-8" d="m137.66,64.05l-20.2,40.92-44.97,6.54c16.49-21.58,39.07-38.26,65.17-47.46Z"/>
          <path class="cls-7" d="m224.28,332.45c-12.58,3.69-25.9,5.66-39.68,5.66s-27.1-1.97-39.68-5.66l39.68-20.86,39.68,20.86Z"/>
          <path class="cls-10" d="m296.71,111.51l-44.97-6.54-20.2-40.92c26.1,9.2,48.69,25.88,65.18,47.46Z"/>
          <path class="cls-2" d="m325.57,201.14c-.79,28.11-9.81,54.17-24.74,75.84l-7.6-44.32,32.34-31.53Z"/>
          <path class="cls-24" d="m63.41,124.9c-9.48,15.89-15.93,33.81-18.54,52.95L0,134.11l63.41-9.21Z"/>
          <path class="cls-4" d="m92.3,224.08l-11.7,68.24c-4.42-4.81-8.51-9.94-12.22-15.34l7.6-44.32-32.34-31.53c-.04-1.35-.06-2.7-.06-4.06,0-6.52.45-12.94,1.31-19.23l47.43,46.23Z"/>
          <path class="cls-1" d="m122.55,323.77l-52.04,27.36,10.08-58.8c11.84,12.93,26.05,23.64,41.96,31.44Z"/>
          <path class="cls-4" d="m155.45,59.07l-27.9,56.51-64.15,9.32c2.77-4.65,5.81-9.11,9.08-13.4l44.97-6.54,20.2-40.92c5.77-2.04,11.71-3.71,17.79-4.98Z"/>
          <path class="cls-23" d="m213.75,59.07c-9.41-1.98-19.16-3.02-29.15-3.02s-19.74,1.04-29.15,3.02L184.6,0l29.15,59.07Z"/>
          <path class="cls-4" d="m246.65,323.77c-7.14,3.51-14.61,6.42-22.37,8.69l-39.68-20.86-39.68,20.86c-7.76-2.26-15.23-5.18-22.36-8.69l62.05-32.62,62.05,32.62Z"/>
          <path class="cls-25" d="m298.69,351.13l-52.04-27.36c15.9-7.8,30.12-18.51,41.96-31.44l10.08,58.8Z"/>
          <path class="cls-4" d="m305.79,124.9l-64.14-9.32-27.9-56.51c6.08,1.27,12.02,2.94,17.78,4.98l20.2,40.92,44.97,6.54c3.28,4.28,6.31,8.75,9.08,13.4Z"/>
          <path class="cls-4" d="m325.57,201.14l-32.34,31.53,7.6,44.32c-3.72,5.4-7.81,10.53-12.22,15.34l-11.71-68.24,47.43-46.23c.86,6.29,1.31,12.71,1.31,19.23,0,1.36-.02,2.71-.06,4.06Z"/>
          <path class="cls-17" d="m369.2,134.11l-44.87,43.73c-2.6-19.14-9.06-37.05-18.54-52.95l63.41,9.21Z"/>
          <g>
            <path class="cls-6" d="m142.53,239.06h-30.6v-3.77l22.44-69.77h-20.25v-6.27h28.41v3.67l-22.44,69.87h22.44v6.27Z"/>
            <path class="cls-28" d="m159.26,239.06h-7.09v-79.81h7.09v79.81Z"/>
            <path class="cls-3" d="m212.04,239.06h-6.68v-50.54c0-.71.24-2.81.71-6.27l-13.06,49.32h-1.43l-13.06-49.32c.48,3.5.71,5.59.71,6.27v50.54h-6.68v-79.81h6.58l12.95,51.92c.07.27.14,1.04.2,2.29,0-.51.07-1.27.2-2.29l12.95-51.92h6.58v79.81Z"/>
            <path class="cls-26" d="m256.97,239.06h-7.04l-2.81-17.75h-15.86l-2.8,17.75h-6.83v-.2l14.23-79.81h6.99l14.13,80.02Zm-10.76-24.02l-6.99-43.25-7.04,43.25h14.02Z"/>
          </g>
          <g class="cls-16">
            <path class="cls-12" d="m142.68,239.06h-30.6v-3.77l22.44-69.77h-20.25v-6.27h28.41v3.67l-22.44,69.87h22.44v6.27Z"/>
            <path class="cls-14" d="m159.41,239.06h-7.09v-79.81h7.09v79.81Z"/>
            <path class="cls-22" d="m212.19,239.06h-6.68v-50.54c0-.71.24-2.81.71-6.27l-13.06,49.32h-1.43l-13.06-49.32c.48,3.5.71,5.59.71,6.27v50.54h-6.68v-79.81h6.58l12.95,51.92c.07.27.14,1.04.2,2.29,0-.51.07-1.27.2-2.29l12.95-51.92h6.58v79.81Z"/>
            <path class="cls-18" d="m257.12,239.06h-7.04l-2.81-17.75h-15.86l-2.8,17.75h-6.83v-.2l14.23-79.81h6.99l14.13,80.02Zm-10.76-24.02l-6.99-43.25-7.04,43.25h14.02Z"/>
          </g>
          <g class="cls-15">
            <path class="cls-5" d="m145.33,239.06h-30.6v-3.77l22.44-69.77h-20.25v-6.27h28.41v3.67l-22.44,69.87h22.44v6.27Z"/>
            <path class="cls-21" d="m162.06,239.06h-7.09v-79.81h7.09v79.81Z"/>
            <path class="cls-27" d="m214.84,239.06h-6.68v-50.54c0-.71.24-2.81.71-6.27l-13.06,49.32h-1.43l-13.06-49.32c.48,3.5.71,5.59.71,6.27v50.54h-6.68v-79.81h6.58l12.95,51.92c.07.27.14,1.04.2,2.29,0-.51.07-1.27.2-2.29l12.95-51.92h6.58v79.81Z"/>
            <path class="cls-11" d="m259.77,239.06h-7.04l-2.81-17.75h-15.86l-2.8,17.75h-6.83v-.2l14.23-79.81h6.99l14.13,80.02Zm-10.76-24.02l-6.99-43.25-7.04,43.25h14.02Z"/>
          </g>
        </g>
      </g>
    </g>
  </g>
</svg>